<svg xmlns="http://www.w3.org/2000/svg" width="1106" height="708" fill="none"><path fill="#fff" d="M91.595 241.5c.4 1 .3 1.9-.3 2.7-.4.8-1.1 1.3-2.1 1.5-2.8.4-5.7.4-8.7 0-2.8-.4-5.7-.7-8.7-.9-1.6-.2-3.3-.3-5.1-.3-1.6 0-3.2-.1-4.8-.3l-.6.6h.6c-.6.2-1.9.3-3.9.3-1.4.2-3.3.4-5.7.6l-3.3.3c-1 .2-1.7.1-2.1-.3-.4-.4-.8-.9-1.2-1.5-.4-.4-.7-.9-.9-1.5v-.9l.3-1.2 1.2-2.4c1-1.8 2.1-3.9 3.3-6.3 1.2-2.6 2.2-5.2 3-7.8 1-2.8 1.5-5.2 1.5-7.2-.2-26.2-.1-52.1.3-77.7.6-25.8.7-51.8.3-78 0-4.2-.2-8.9-.6-14.1-.2-5.4-1.7-9.8-4.5-13.2-1-2.2-2.7-4.5-5.1-6.9-2.2-2.4-4.1-4.2-5.7-5.4-1.2-1-1.6-2.2-1.2-3.6.4-1.4 1.3-2.2 2.7-2.4 4.4-.6 9.3-1.7 14.7-3.3 5.4-1.6 10.4-3.2 15-4.8 4.6-1.8 8.5-3.3 11.7-4.5l4.8-2.1c1-.6 2-.5 3 .3 1 .6 1.4 1.5 1.2 2.7l-.3 6.3c-.2 4.2-.5 9.3-.9 15.3-.2 6-.4 12.2-.6 18.6-.2 6.4-.4 11.8-.6 16.2-.4 20.2-.8 40.5-1.2 60.9-.4 20.4-.5 40.8-.3 61.2v13.5c.2 5.6.4 11.4.6 17.4.4 5.8.9 11.3 1.5 16.5.6 5.2 1.5 9.1 2.7 11.7ZM268.436 75.6c0 .4-.1.9-.3 1.5-.2.6-.5 1-.9 1.2-1.2 1-3 1.9-5.4 2.7h.3c-1 .6-1.9 1.2-2.7 1.8-.8.6-1.5 1.6-2.1 3-1.4 3.6-2.4 8.2-3 13.8-.4 5.4-.7 10.7-.9 15.9 0 1.6-.1 3.3-.3 5.1 0 1.8-.1 3.4-.3 4.8v41.7c0 7 .1 14.6.3 22.8.4 8.2 1 15.9 1.8 23.1 1 7 2.4 13 4.2 18 1.8 4.8 4.2 7.4 7.2 7.8 1.6.4 2.3 1.6 2.1 3.6-.2 1.8-1.1 2.7-2.7 2.7l-15-.3c-4.2-.2-8.5 0-12.9.6-4.4.4-8.6 1.1-12.6 2.1-2.8.8-4.4.2-4.8-1.8-.2-2-.1-3.9.3-5.7v.3c.2-1.6.3-3.3.3-5.1 0-1.8.1-3.5.3-5.1-.8.8-2 1.6-3.6 2.4-7.2 4.8-14.6 8.3-22.2 10.5-7.4 2-15.5 3-24.3 3-10.4 0-19.6-1.9-27.6-5.7-8-4-14.8-9.4-20.4-16.2-5.4-6.8-9.5-14.9-12.3-24.3-2.8-9.4-4.2-19.7-4.2-30.9 0-16 2.2-30.1 6.6-42.3 4.6-12.4 11-22.8 19.2-31.2 8.2-8.4 17.9-14.7 29.1-18.9 11.2-4.4 23.6-6.6 37.2-6.6 5.6 0 11.3.3 17.1.9 5.8.6 11.3 2.3 16.5 5.1l9.9 5.4c1.6-1 3.2-1.9 4.8-2.7 1.6-1 3.1-2 4.5-3 2-1.2 3.9-2.4 5.7-3.6 2-1.4 4.1-2.4 6.3-3 1.2-.4 2.2-.3 3 .3 1 .6 1.5 1.4 1.5 2.4l.3 3.9Zm-45 85.2v-10.5c0-3.6-.1-7-.3-10.2 0-2.6-.1-5-.3-7.2v-6.6c0-14.8-2.7-26-8.1-33.6-5.2-7.6-14.4-11.4-27.6-11.4-8.4 0-15.4 2.6-21 7.8-5.6 5-10 11.3-13.2 18.9-3.2 7.6-5.5 16-6.9 25.2-1.2 9-1.8 17.5-1.8 25.5 0 8.4 1.1 16.8 3.3 25.2 2.4 8.4 5.7 16 9.9 22.8 4.4 6.6 9.7 12 15.9 16.2 6.2 4.2 13.3 6.3 21.3 6.3 6.4 0 11.5-2 15.3-6 3.8-4.2 6.7-9.6 8.7-16.2 2-6.6 3.3-13.9 3.9-21.9.6-8.2.9-16.3.9-24.3Zm228.581 79.5c1.4 1 1.8 2.4 1.2 4.2-.4 1.6-1.4 2.2-3 1.8-2.2-.6-5.2-1.2-9-1.8-3.8-.6-7.9-1-12.3-1.2-4.4-.2-8.9 0-13.5.6-4.4.4-8.3 1.4-11.7 3-1 .4-1.9.2-2.7-.6-.6-.8-.9-1.7-.9-2.7 0-7.4.1-14.8.3-22.2.4-7.4.8-14.7 1.2-21.9.2-3.6.4-8 .6-13.2l.6-16.2c.2-5.6.3-11 .3-16.2.2-5.4.3-9.9.3-13.5 0-9.6-2.9-17.9-8.7-24.9-5.6-7-12.7-12.8-21.3-17.4-8.4-4.8-17.5-8.4-27.3-10.8-9.8-2.6-18.8-4.4-27-5.4-.2 1.8-.4 5.2-.6 10.2-.2 4.8-.4 9.9-.6 15.3 0 5.4-.1 10.5-.3 15.3v71.4c0 9.4 1.6 18 4.8 25.8 3.2 7.6 7.7 14.6 13.5 21 .8 1 1 2.1.6 3.3-.4 1-1.3 1.6-2.7 1.8-2.6.4-5.2 0-7.8-1.2-2.4-1.4-5-2-7.8-1.8-5.4.2-10.7.6-15.9 1.2-5.2.4-10.3 1.5-15.3 3.3-1 .4-2 .3-3-.3s-1.4-1.6-1.2-3c2-16.2 3.3-32.2 3.9-48 .6-16 .9-32.1.9-48.3v-23.1c0-2.6-.1-6.1-.3-10.5 0-4.6-.2-9.2-.6-13.8-.4-4.8-1.1-9.2-2.1-13.2-.8-4-1.9-6.9-3.3-8.7-1-1-1.3-2-.9-3s1.3-1.7 2.7-2.1c13.8-3 28-4.5 42.6-4.5 5.4 0 10.5-.1 15.3-.3 5-.2 9.8-.2 14.4 0 4.8.2 9.5.7 14.1 1.5 4.8.8 9.9 2.2 15.3 4.2v-.3c1 .4 2 .9 3 1.5 1.2.6 2.4 1.3 3.6 2.1l-.3-.3c11 6.6 19.6 12.9 25.8 18.9 6.4 6 11.1 11.9 14.1 17.7 3.2 5.8 5.1 11.7 5.7 17.7.8 5.8 1.2 11.8 1.2 18 0 1.8-.1 3.8-.3 6v6.3c0 2.2-.1 4.5-.3 6.9v6.9c0 6-.1 12.2-.3 18.6-.2 6.4 0 12.6.6 18.6.8 5.8 2.2 11.1 4.2 15.9 2.2 4.8 5.6 8.6 10.2 11.4Zm174.692-82.5c0 13.8-2.6 26.2-7.8 37.2-5 10.8-11.7 20.1-20.1 27.9-8.2 7.6-17.7 13.4-28.5 17.4-10.6 4-21.4 6-32.4 6-12.2 0-22.7-2.2-31.5-6.6-8.8-4.6-16-10.7-21.6-18.3-5.6-7.8-9.7-16.7-12.3-26.7-2.6-10-3.9-20.5-3.9-31.5 0-6.6.7-13.4 2.1-20.4 1.4-7.2 3.4-14.2 6-21 2.8-6.8 6.1-13 9.9-18.6 4-5.8 8.5-10.5 13.5-14.1 2.2-1.6 5.8-3.7 10.8-6.3 5.2-2.8 10-5 14.4-6.6-2.2-.2-4.4-.3-6.6-.3-2 0-4.1-.1-6.3-.3l-20.7-.9c-1.6-.2-3.5-.2-5.7 0-2 .2-3.8.4-5.4.6h.3c-1 .2-2 .3-3 .3h-5.1c-.8 0-1.7-.1-2.7-.3-1-.4-1.9-.8-2.7-1.2-.8-.4-1.2-1.1-1.2-2.1 0-1.4.6-2.3 1.8-2.7 4.2-2 8.1-4.6 11.7-7.8 3.6-3.2 6.9-6.7 9.9-10.5 3.2-4 6.1-8.1 8.7-12.3 2.6-4.4 5-8.7 7.2-12.9.6-1.4 1.6-2.1 3-2.1s2.4.7 3 2.1c.6 1.2.8 2.5.6 3.9 0 1.4-.1 2.6-.3 3.6-.2.6-.3 1-.3 1.2 1.2 5 3.2 9.2 6 12.6 2.8 3.2 6.1 6 9.9 8.4 4 2.4 8.3 4.4 12.9 6 4.8 1.6 9.8 3.1 15 4.5 8.4 2.2 16.8 4.9 25.2 8.1 8.4 3.2 16 8 22.8 14.4 7 6.4 12.6 15.1 16.8 26.1 4.4 11 6.6 25.4 6.6 43.2Zm-40.5 8.7c1-8.4 1.1-16.8.3-25.2-.6-8.6-2.2-16.6-4.8-24-2.4-7.4-5.9-13.9-10.5-19.5-4.4-5.8-9.9-10.2-16.5-13.2h-.6l-1.5-.3h-1.2c-.4-.2-.8-.3-1.2-.3-2-.4-3.3-.6-3.9-.6-8.2 0-15 2.2-20.4 6.6-5.2 4.4-9.4 10-12.6 16.8-3.2 6.8-5.4 14.4-6.6 22.8-1.2 8.2-1.8 16.2-1.8 24 0 16.2 2.7 31.1 8.1 44.7 5.4 13.4 15.3 24.6 29.7 33.6.4.4.8.7 1.2.9.4 0 .8.2 1.2.6 6.6 3.8 12.3 3.9 17.1.3 4.8-3.8 8.8-9.4 12-16.8 3.4-7.4 6-15.7 7.8-24.9 1.8-9.4 3.2-17.9 4.2-25.5ZM702.625 45c0 1.6-.6 2.6-1.8 3l-29.1 13.2c-1 .4-1.9.5-2.7.3-.8-.4-1.4-1.1-1.8-2.1-1.6-4-3.1-7.7-4.5-11.1-1.4-3.6-3.7-7.6-6.9-12-1.4-2-1-3.6 1.2-4.8l26.7-12c1.6-.8 3-.4 4.2 1.2l4.5 6v-.3c1.8 2.4 3.5 4.9 5.1 7.5 1.8 2.4 3.5 5.6 5.1 9.6V45Zm-5.7 194.7c1 1 1.4 2.1 1.2 3.3-.2 1-.9 1.7-2.1 2.1-1.4.4-3.4.6-6 .6H681.325c-1.4 0-2.7.1-3.9.3h-3.6c-1 0-2.2.1-3.6.3h-3.3c-.4 0-.8.1-1.2.3h.6c-.6.2-1.8.3-3.6.3-1.6.2-3.1.3-4.5.3-1.2.2-1.9.3-2.1.3h-2.1c-1.2 0-2.1-.4-2.7-1.2-.4-.4-.5-1-.3-1.8l.3-1.2.9-4.5c.6-3.2 1.3-6.9 2.1-11.1.8-4.4 1.5-8.9 2.1-13.5.8-4.8 1.2-8.9 1.2-12.3.2-3.2.3-6.2.3-9 0-3 .1-5.9.3-8.7.6-17.4.9-34.9.9-52.5V120c0-4-.2-8-.6-12-2.4-3.8-5.2-7.1-8.4-9.9-3.2-3-6.5-5.7-9.9-8.1-1-.4-1.5-1.2-1.5-2.4l.3-.9c0-1.8 1-2.9 3-3.3 1.2-.2 3.1-.5 5.7-.9s5.4-.9 8.4-1.5 5.8-1.2 8.4-1.8c2.8-.6 4.8-1.2 6-1.8h.9c.4 0 .8-.1 1.2-.3h-.3c1-.4 2.1-.7 3.3-.9 1.4-.4 2.3-.7 2.7-.9l13.8-5.1c1.2-.4 2.2-.2 3 .6 1 .8 1.3 1.9.9 3.3-.6 2.2-1.1 5.2-1.5 9-.4 3.8-.7 7.1-.9 9.9-1.8 34.2-2.7 68.5-2.7 102.9v20.7c0 4.2.2 8.5.6 12.9.6 4.2 2.4 7.6 5.4 10.2Zm187.221.6c1.4 1 1.8 2.4 1.2 4.2-.4 1.6-1.4 2.2-3 1.8-2.2-.6-5.2-1.2-9-1.8-3.8-.6-7.9-1-12.3-1.2-4.4-.2-8.9 0-13.5.6-4.4.4-8.3 1.4-11.7 3-1 .4-1.9.2-2.7-.6-.6-.8-.9-1.7-.9-2.7 0-7.4.1-14.8.3-22.2.4-7.4.8-14.7 1.2-21.9.2-3.6.4-8 .6-13.2l.6-16.2c.2-5.6.3-11 .3-16.2.2-5.4.3-9.9.3-13.5 0-9.6-2.9-17.9-8.7-24.9-5.6-7-12.7-12.8-21.3-17.4-8.4-4.8-17.5-8.4-27.3-10.8-9.8-2.6-18.8-4.4-27-5.4-.2 1.8-.4 5.2-.6 10.2-.2 4.8-.4 9.9-.6 15.3 0 5.4-.1 10.5-.3 15.3v71.4c0 9.4 1.6 18 4.8 25.8 3.2 7.6 7.7 14.6 13.5 21 .8 1 1 2.1.6 3.3-.4 1-1.3 1.6-2.7 1.8-2.6.4-5.2 0-7.8-1.2-2.4-1.4-5-2-7.8-1.8-5.4.2-10.7.6-15.9 1.2-5.2.4-10.3 1.5-15.3 3.3-1 .4-2 .3-3-.3s-1.4-1.6-1.2-3c2-16.2 3.3-32.2 3.9-48 .6-16 .9-32.1.9-48.3v-23.1c0-2.6-.1-6.1-.3-10.5 0-4.6-.2-9.2-.6-13.8-.4-4.8-1.1-9.2-2.1-13.2-.8-4-1.9-6.9-3.3-8.7-1-1-1.3-2-.9-3s1.3-1.7 2.7-2.1c13.8-3 28-4.5 42.6-4.5 5.4 0 10.5-.1 15.3-.3 5-.2 9.8-.2 14.4 0 4.8.2 9.5.7 14.1 1.5 4.8.8 9.9 2.2 15.3 4.2v-.3c1 .4 2 .9 3 1.5 1.2.6 2.4 1.3 3.6 2.1l-.3-.3c11 6.6 19.6 12.9 25.8 18.9 6.4 6 11.1 11.9 14.1 17.7 3.2 5.8 5.1 11.7 5.7 17.7.8 5.8 1.2 11.8 1.2 18 0 1.8-.1 3.8-.3 6v6.3c0 2.2-.1 4.5-.3 6.9v6.9c0 6-.1 12.2-.3 18.6-.2 6.4 0 12.6.6 18.6.8 5.8 2.2 11.1 4.2 15.9 2.2 4.8 5.6 8.6 10.2 11.4Zm207.694 29.1c0 5.8-2 11.2-6 16.2-4 5.2-9.2 10-15.6 14.4s-13.5 8.3-21.3 11.7c-7.8 3.4-15.5 6.3-23.1 8.7-7.4 2.4-14.4 4.2-21 5.4-6.402 1.4-11.402 2.1-15.002 2.1-6.6 0-14.1-.9-22.5-2.7-8.2-1.6-16.4-4.1-24.6-7.5-8-3.2-15.5-7.3-22.5-12.3-7-4.8-12.4-10.4-16.2-16.8v-1.5c.2-.8.5-1.5.9-2.1.6-1.6 1.5-2.7 2.7-3.3 1.2-.6 2.3-1.3 3.3-2.1h-.3l13.2-9.9c4.8-3.4 9.499-7.1 14.1-11.1 4.8-3.8 9.3-7.7 13.5-11.7 4.2-4 7.7-7.8 10.5-11.4-6.6-3.2-13.1-6.7-19.5-10.5-6.2-4-11.8-8.7-16.8-14.1-4.8-5.4-8.7-11.6-11.7-18.6-2.8-7.2-4.2-15.5-4.2-24.9 0-7.2 1.5-13.9 4.5-20.1 3.2-6.2 7.2-11.9 12-17.1 4.8-5.2 10.1-9.9 15.9-14.1 5.8-4.4 11.5-8.3 17.1-11.7h-9c-9 0-18.1-.1-27.3-.3-9-.4-17.6-1.7-25.8-3.9-1.6-.4-2.5-1.3-2.7-2.7 0-1.6.8-2.7 2.4-3.3.6-.2 2.4-1.6 5.4-4.2 3-2.8 6.3-5.9 9.9-9.3 3.6-3.4 6.9-6.6 9.9-9.6 3.2-3.2 5.2-5.3 6-6.3.2-.4.5-.7.9-.9.6-.2 1.1-.3 1.5-.3h1.2c1.6 0 2.6.6 3 1.8.6 1 .5 2.1-.3 3.3l-5.1 7.8c.8.6 1.8 1 3 1.2 1.2.2 2.2.3 3 .3l11.4.6 12 .6c9 .4 17.9.8 26.7 1.2 9 .4 18.002.6 27.002.6h33.3c2.2 0 5-.2 8.4-.6 3.4-.4 6.7-.8 9.9-1.2 3.2-.6 5.9-1.1 8.1-1.5l3.6-.6c1-.2 1.9 0 2.7.6.8.6 1.2 1.4 1.2 2.4v1.5c0 1-.3 1.8-.9 2.4-.2.2-1.3 1-3.3 2.4-2 1.4-4.7 3.2-8.1 5.4-3.4 2.2-6.5 3.9-9.3 5.1-6.4 2.8-12.2 4.7-17.4 5.7-2.2.4-4.8.7-7.8.9-3 0-5.9.1-8.7.3-8.2.4-17 1.1-26.402 2.1-9.4.8-18.1 2.7-26.1 5.7-7.8 2.8-14.4 7-19.8 12.6-5.2 5.6-7.8 13.3-7.8 23.1 0 14.4 3.1 26.5 9.3 36.3 6.2 9.8 14.1 18.1 23.7 24.9 9.6 6.8 20.2 12.4 31.802 16.8 11.6 4.4 22.7 8.4 33.3 12 6.8 2.2 13.2 4.4 19.2 6.6 6.2 2.2 11.5 4.5 15.9 6.9 4.6 2.6 8.2 5.4 10.8 8.4 2.6 3 3.9 6.4 3.9 10.2Zm-37.2 10.8c0-4.8-2-9.2-6-13.2s-9-7.6-15-10.8c-6-3-12.5-5.7-19.5-8.1-6.8-2.2-13.2-4-19.202-5.4-6-1.6-11-2.8-15-3.6l-6-1.2c-1.2 1-3.2 2.7-6 5.1-2.6 2.4-5.6 5.1-9 8.1-3.2 3-6.6 6.1-10.2 9.3-3.6 3.4-6.8 6.6-9.6 9.6 3.4 6.6 8.3 12.3 14.7 17.1 6.6 4.8 13.8 8.8 21.6 12 7.8 3.2 15.7 5.5 23.7 6.9 8.002 1.6 15.102 2.4 21.302 2.4 3.6 0 7.4-.6 11.4-1.8 4.2-1.2 7.9-3 11.1-5.4 3.4-2.2 6.2-5.1 8.4-8.7 2.2-3.4 3.3-7.5 3.3-12.3ZM196.7 515.15c0 17.967-2.567 34.3-7.7 49-4.9 14.467-12.017 26.833-21.35 37.1-9.1 10.267-20.183 18.2-33.25 23.8-13.067 5.6-27.65 8.4-43.75 8.4-3.733 0-7.117-.35-10.15-1.05-2.8-.7-5.483-1.4-8.05-2.1-2.567-.7-4.9-1.283-7-1.75-2.1-.7-3.617-1.167-4.55-1.4-.7 5.367-1.167 10.967-1.4 16.8v16.8c0 4.2.117 8.4.35 12.6.233 4.2.35 8.283.35 12.25 0 1.867-.7 3.033-2.1 3.5-3.967 1.167-8.05 2.683-12.25 4.55-4.2 2.1-8.4 4.317-12.6 6.65-2.1 1.167-4.2 2.1-6.3 2.8-2.1.933-4.2 1.983-6.3 3.15-1.867.933-3.5.467-4.9-1.4-1.167-1.867-1.167-3.383 0-4.55 1.4-1.4 2.567-4.55 3.5-9.45 1.167-4.667 2.1-10.383 2.8-17.15.7-6.767 1.167-14.117 1.4-22.05.467-7.933.7-15.75.7-23.45.233-7.933.35-15.283.35-22.05V524.95c0-6.067-.233-12.367-.7-18.9-.467-6.533-1.517-12.833-3.15-18.9-1.4-6.067-3.5-11.55-6.3-16.45-2.8-5.133-6.65-9.333-11.55-12.6-1.867-1.167-2.683-2.567-2.45-4.2.467-1.633 1.633-2.45 3.5-2.45l33.25 1.05c8.633-10.733 19.133-18.2 31.5-22.4 12.6-4.2 24.967-6.3 37.1-6.3 12.833 0 24.733 1.867 35.7 5.6 11.2 3.5 20.883 9.1 29.05 16.8 8.167 7.467 14.583 16.917 19.25 28.35s7 24.967 7 40.6ZM151.55 533c0-9.1-.817-19.25-2.45-30.45-1.633-11.2-4.433-21.7-8.4-31.5-3.733-9.8-8.867-17.967-15.4-24.5-6.533-6.767-14.583-10.15-24.15-10.15-7.7 0-14.117 1.633-19.25 4.9-5.133 3.033-9.333 7.233-12.6 12.6-3.267 5.133-5.6 11.2-7 18.2-1.4 6.767-2.217 14-2.45 21.7a621.98 621.98 0 0 0 0 51.1c.7 16.8 1.05 33.717 1.05 50.75v8.4A123.23 123.23 0 0 0 70 593.9c2.8-3.5 5.483-7.583 8.05-12.25.933-1.633 2.333-2.217 4.2-1.75 1.867.467 2.8 1.633 2.8 3.5l.7 1.75c-.467 1.167-.7 2.217-.7 3.15v2.8c0 3.5 1.05 6.65 3.15 9.45a37.06 37.06 0 0 0 8.05 6.65c3.267 1.867 6.65 3.267 10.15 4.2 3.733.933 6.883 1.4 9.45 1.4 8.4 0 14.933-2.8 19.6-8.4 4.9-5.6 8.517-12.367 10.85-20.3 2.333-8.167 3.733-16.8 4.2-25.9.467-9.333.7-17.733.7-25.2h.35Zm255.631 93.45c0 2.333-1.283 3.5-3.85 3.5-4.9 0-9.916-.35-15.05-1.05-4.9-.933-9.916-1.167-15.05-.7l-13.3 1.4c-4.433.233-8.866.35-13.3.35-2.333 0-3.5-1.283-3.5-3.85 0-9.567.117-19.017.35-28.35.234-9.333.584-18.9 1.05-28.7.467-8.867.817-18.2 1.05-28 .234-10.033.35-19.483.35-28.35s-.35-17.733-1.05-26.6c-.7-8.867-2.333-16.8-4.9-23.8-2.566-7.233-6.65-13.067-12.25-17.5-5.366-4.433-12.716-6.65-22.05-6.65-5.133 0-10.15.933-15.05 2.8-4.666 1.633-8.866 4.2-12.6 7.7-3.5 3.5-6.416 7.817-8.75 12.95-2.1 4.9-3.15 10.617-3.15 17.15V568c.234 7.233.584 14.467 1.05 21.7.7 7 1.634 13.65 2.8 19.95 1.167 6.067 2.8 11.083 4.9 15.05.7 1.4.7 2.683 0 3.85-.7.933-1.866 1.4-3.5 1.4-3.5-.233-7.116-.7-10.85-1.4a36.1 36.1 0 0 0-11.2-.35c-3.266.467-6.533.817-9.8 1.05-3.033.233-6.183.35-9.45.35h-1.75c-1.866 0-3.15-.817-3.85-2.45-.466-1.867.117-3.267 1.75-4.2.934-.7 1.634-3.85 2.1-9.45.467-5.6.817-12.6 1.05-21 .467-8.4.7-17.5.7-27.3.234-10.033.35-19.6.35-28.7 0-6.533-.116-12.717-.35-18.55V482.6l-.7-57.4c0-3.5-.116-7-.35-10.5 0-3.5-.233-6.767-.7-9.8-.466-3.267-1.4-6.3-2.8-9.1-1.166-2.8-3.15-5.25-5.95-7.35-3.5-2.567-6.183-4.9-8.05-7-1.866-2.333-4.666-4.9-8.4-7.7-1.166-.933-1.166-1.983 0-3.15.934-1.167 2.1-1.75 3.5-1.75 3.734 0 8.05-.467 12.95-1.4a188.885 188.885 0 0 0 15.4-4.2 284.217 284.217 0 0 0 15.05-5.25c5.134-2.1 9.567-3.967 13.3-5.6 3.267-1.167 4.9 0 4.9 3.5 0 10.967-.35 21.817-1.05 32.55-.7 10.967-1.05 21.7-1.05 32.2 0 2.567-.116 5.6-.35 9.1 0 3.267-.116 5.833-.35 7.7 1.634-.933 4.434-2.217 8.4-3.85 3.967-1.633 8.867-3.267 14.7-4.9 5.834-1.633 12.484-3.033 19.95-4.2 7.467-1.4 15.75-2.1 24.85-2.1 7.234 0 14.117.7 20.65 2.1 6.767 1.167 12.6 3.5 17.5 7 4.9 3.267 8.75 8.05 11.55 14.35 3.034 6.067 4.55 14 4.55 23.8 0 10.267-.233 20.417-.7 30.45a1293.013 1293.013 0 0 1-1.05 30.1c-.466 10.267-.933 21-1.4 32.2-.233 11.2-.35 22.05-.35 32.55 0 8.167 1.167 14.35 3.5 18.55 2.567 4.2 7.7 6.533 15.4 7 2.567 0 3.85 1.283 3.85 3.85l.35 2.1ZM614.214 489.6c-.7 1.167-1.866 1.867-3.5 2.1l-2.45.35h-38.5c-5.133-.233-12.133-.467-21-.7a959.922 959.922 0 0 0-25.9-.35 898.75 898.75 0 0 0-24.15-.35c-7.233-.233-12.133-.35-14.7-.35h-9.45c-4.666 0-8.516.117-11.55.35-2.8.233-5.133 1.283-7 3.15-1.633 1.867-2.8 4.783-3.5 8.75-.466 3.967-.7 9.8-.7 17.5 0 12.6 1.75 24.617 5.25 36.05 3.734 11.433 8.867 21.467 15.4 30.1 6.767 8.633 14.817 15.517 24.15 20.65 9.334 5.133 19.834 7.7 31.5 7.7 5.6 0 10.384-1.05 14.35-3.15 4.2-2.333 7.7-5.367 10.5-9.1 2.8-3.967 4.9-8.517 6.3-13.65 1.634-5.133 2.8-10.617 3.5-16.45.234-1.633.934-2.683 2.1-3.15 1.4-.467 2.684-.35 3.85.35 3.734 2.8 8.867 4.667 15.4 5.6 6.534.7 12.25 1.05 17.15 1.05 2.567 0 3.85 1.283 3.85 3.85v2.8c-13.533 16.333-29.166 28.933-46.9 37.8-17.733 8.867-36.166 13.3-55.3 13.3-12.6 0-24.5-1.983-35.7-5.95-10.966-3.967-20.65-9.8-29.05-17.5-8.166-7.7-14.7-17.267-19.6-28.7-4.666-11.667-7-25.083-7-40.25 0-17.267 1.984-32.9 5.95-46.9 4.2-14.233 10.384-26.367 18.55-36.4 8.167-10.267 18.2-18.083 30.1-23.45 11.9-5.6 25.784-8.4 41.65-8.4 9.1 0 17.384.817 24.85 2.45 7.7 1.633 14.7 4.433 21 8.4 6.3 3.733 11.9 8.867 16.8 15.4 4.9 6.533 9.1 14.583 12.6 24.15l7.7 1.05c5.367.7 11.434 1.867 18.2 3.5 1.634.467 3.15 1.517 4.55 3.15 1.634 1.633 1.867 3.383.7 5.25Zm-77.35-16.8c0-5.367-.933-10.033-2.8-14-1.866-3.967-4.316-7.233-7.35-9.8-3.033-2.8-6.65-4.9-10.85-6.3-3.966-1.4-8.05-2.1-12.25-2.1-4.2 0-8.75 1.05-13.65 3.15-4.9 2.1-9.566 4.9-14 8.4-4.2 3.5-7.933 7.583-11.2 12.25-3.033 4.667-4.9 9.567-5.6 14.7h17.5c5.834-.233 11.784-.467 17.85-.7 6.067-.233 12.134-.35 18.2-.35 6.3-.233 12.6-.35 18.9-.35 2.1 0 3.85-.35 5.25-1.05v-3.85Zm276.487 150.5c1.633 1.167 2.1 2.8 1.4 4.9-.467 1.867-1.634 2.567-3.5 2.1-2.567-.7-6.067-1.4-10.5-2.1-4.434-.7-9.217-1.167-14.35-1.4-5.134-.233-10.384 0-15.75.7-5.134.467-9.684 1.633-13.65 3.5-1.167.467-2.217.233-3.15-.7a5.118 5.118 0 0 1-1.05-3.15c0-8.633.116-17.267.35-25.9.466-8.633.933-17.15 1.4-25.55.233-4.2.466-9.333.7-15.4l.7-18.9c.233-6.533.35-12.833.35-18.9.233-6.3.35-11.55.35-15.75 0-11.2-3.384-20.883-10.15-29.05-6.534-8.167-14.817-14.933-24.85-20.3-9.8-5.6-20.417-9.8-31.85-12.6-11.434-3.033-21.934-5.133-31.5-6.3-.234 2.1-.467 6.067-.7 11.9-.234 5.6-.467 11.55-.7 17.85 0 6.3-.117 12.25-.35 17.85v83.3c0 10.967 1.866 21 5.6 30.1 3.733 8.867 8.983 17.033 15.75 24.5.933 1.167 1.166 2.45.7 3.85-.467 1.167-1.517 1.867-3.15 2.1-3.034.467-6.067 0-9.1-1.4-2.8-1.633-5.834-2.333-9.1-2.1-6.3.233-12.484.7-18.55 1.4-6.067.467-12.017 1.75-17.85 3.85-1.167.467-2.334.35-3.5-.35-1.167-.7-1.634-1.867-1.4-3.5 2.333-18.9 3.85-37.567 4.55-56 .7-18.667 1.05-37.45 1.05-56.35v-26.95c0-3.033-.117-7.117-.35-12.25 0-5.367-.234-10.733-.7-16.1-.467-5.6-1.284-10.733-2.45-15.4-.934-4.667-2.217-8.05-3.85-10.15-1.167-1.167-1.517-2.333-1.05-3.5.466-1.167 1.516-1.983 3.15-2.45 16.1-3.5 32.666-5.25 49.7-5.25 6.3 0 12.25-.117 17.85-.35 5.833-.233 11.433-.233 16.8 0 5.6.233 11.083.817 16.45 1.75 5.6.933 11.55 2.567 17.85 4.9v-.35a24.574 24.574 0 0 1 3.5 1.75c1.4.7 2.8 1.517 4.2 2.45l-.35-.35c12.833 7.7 22.866 15.05 30.1 22.05 7.466 7 12.95 13.883 16.45 20.65 3.733 6.767 5.95 13.65 6.65 20.65.933 6.767 1.4 13.767 1.4 21 0 2.1-.117 4.433-.35 7v7.35c0 2.567-.117 5.25-.35 8.05v8.05c0 7-.117 14.233-.35 21.7-.234 7.467 0 14.7.7 21.7.933 6.767 2.566 12.95 4.9 18.55 2.566 5.6 6.533 10.033 11.9 13.3Zm89.006-227.85c0 1.867-.7 3.033-2.1 3.5l-33.95 15.4c-1.166.467-2.216.583-3.15.35-.933-.467-1.633-1.283-2.1-2.45a1354.18 1354.18 0 0 0-5.25-12.95c-1.633-4.2-4.316-8.867-8.05-14-1.633-2.333-1.166-4.2 1.4-5.6l31.15-14c1.867-.933 3.5-.467 4.9 1.4l5.25 7v-.35c2.1 2.8 4.084 5.717 5.95 8.75 2.1 2.8 4.084 6.533 5.95 11.2v1.75Zm-6.65 227.15c1.167 1.167 1.634 2.45 1.4 3.85-.233 1.167-1.05 1.983-2.45 2.45-1.633.467-3.966.7-7 .7h-10.15c-1.633 0-3.15.117-4.55.35h-4.2c-1.166 0-2.566.117-4.2.35h-3.85c-.466 0-.933.117-1.4.35h.7c-.7.233-2.1.35-4.2.35-1.866.233-3.616.35-5.25.35-1.4.233-2.216.35-2.45.35h-2.45c-1.4 0-2.45-.467-3.15-1.4-.466-.467-.583-1.167-.35-2.1l.35-1.4 1.05-5.25c.7-3.733 1.517-8.05 2.45-12.95a316.986 316.986 0 0 0 2.45-15.75c.934-5.6 1.4-10.383 1.4-14.35.234-3.733.35-7.233.35-10.5 0-3.5.117-6.883.35-10.15.7-20.3 1.05-40.717 1.05-61.25v-13.65c0-4.667-.233-9.333-.7-14-2.8-4.433-6.066-8.283-9.8-11.55-3.733-3.5-7.583-6.65-11.55-9.45-1.166-.467-1.75-1.4-1.75-2.8l.35-1.05c0-2.1 1.167-3.383 3.5-3.85 1.4-.233 3.617-.583 6.65-1.05 3.034-.467 6.3-1.05 9.8-1.75 3.5-.7 6.767-1.4 9.8-2.1 3.267-.7 5.6-1.4 7-2.1h1.05c.467 0 .934-.117 1.4-.35h-.35c1.167-.467 2.45-.817 3.85-1.05 1.634-.467 2.684-.817 3.15-1.05l16.1-5.95c1.4-.467 2.567-.233 3.5.7 1.167.933 1.517 2.217 1.05 3.85-.7 2.567-1.283 6.067-1.75 10.5-.466 4.433-.816 8.283-1.05 11.55-2.1 39.9-3.15 79.917-3.15 120.05v24.15c0 4.9.234 9.917.7 15.05.7 4.9 2.8 8.867 6.3 11.9Zm209.323-191.45c0 .467-.11 1.05-.35 1.75-.23.7-.58 1.167-1.05 1.4-1.4 1.167-3.5 2.217-6.3 3.15h.35c-1.16.7-2.21 1.4-3.15 2.1-.93.7-1.75 1.867-2.45 3.5-1.63 4.2-2.8 9.567-3.5 16.1-.46 6.3-.81 12.483-1.05 18.55 0 1.867-.11 3.85-.35 5.95 0 2.1-.11 3.967-.35 5.6v48.65c0 8.167.12 17.033.35 26.6.47 9.567 1.17 18.55 2.1 26.95 1.17 8.167 2.8 15.167 4.9 21 2.1 5.6 4.9 8.633 8.4 9.1 1.87.467 2.69 1.867 2.45 4.2-.23 2.1-1.28 3.15-3.15 3.15l-17.5-.35c-4.9-.233-9.91 0-15.05.7-5.13.467-10.03 1.283-14.7 2.45-3.26.933-5.13.233-5.6-2.1-.23-2.333-.11-4.55.35-6.65v.35c.24-1.867.35-3.85.35-5.95s.12-4.083.35-5.95c-.93.933-2.33 1.867-4.2 2.8-8.4 5.6-17.03 9.683-25.9 12.25-8.63 2.333-18.08 3.5-28.348 3.5-12.133 0-22.867-2.217-32.2-6.65-9.333-4.667-17.267-10.967-23.8-18.9-6.3-7.933-11.083-17.383-14.35-28.35-3.267-10.967-4.9-22.983-4.9-36.05 0-18.667 2.567-35.117 7.7-49.35 5.367-14.467 12.833-26.6 22.4-36.4 9.567-9.8 20.883-17.15 33.95-22.05 13.067-5.133 27.538-7.7 43.398-7.7 6.54 0 13.19.35 19.95 1.05 6.77.7 13.19 2.683 19.25 5.95l11.55 6.3a69.157 69.157 0 0 1 5.6-3.15 99.654 99.654 0 0 0 5.25-3.5c2.34-1.4 4.55-2.8 6.65-4.2 2.34-1.633 4.79-2.8 7.35-3.5 1.4-.467 2.57-.35 3.5.35 1.17.7 1.75 1.633 1.75 2.8l.35 4.55Zm-52.5 99.4V518.3c0-4.2-.11-8.167-.35-11.9 0-3.033-.11-5.833-.35-8.4v-7.7c0-17.267-3.15-30.333-9.45-39.2-6.06-8.867-16.8-13.3-32.2-13.3-9.8 0-17.965 3.033-24.498 9.1-6.533 5.833-11.667 13.183-15.4 22.05-3.733 8.867-6.417 18.667-8.05 29.4-1.4 10.5-2.1 20.417-2.1 29.75 0 9.8 1.283 19.6 3.85 29.4 2.8 9.8 6.65 18.667 11.55 26.6 5.133 7.7 11.317 14 18.55 18.9 7.238 4.9 15.518 7.35 24.848 7.35 7.47 0 13.42-2.333 17.85-7 4.44-4.9 7.82-11.2 10.15-18.9 2.34-7.7 3.85-16.217 4.55-25.55.7-9.567 1.05-19.017 1.05-28.35Z"/></svg>