<svg width="65" height="57" viewBox="0 0 65 57" fill="none" xmlns="http://www.w3.org/2000/svg">
<path d="M34.9055 43.6153L33.2681 43.9485C33.2681 43.9485 35.6618 27.3003 41.2915 18.6366C46.4397 10.7139 57.9825 3.7924 64.1235 0.500061L1.8721 0.500066C7.73647 3.87306 18.9692 11.0236 24.0166 18.8814C29.5414 27.4825 31.8763 43.9485 31.8763 43.9485L30.3207 43.6153L30.3207 44.4484L31.6307 45.2815L31.6307 48.7807L26.7184 47.1144L26.7184 48.7807L31.6307 51.4467L31.6307 55.4458L32.2856 56.1123L32.9406 56.1123L33.5956 55.4458L33.5956 51.4467L38.5078 48.7807L38.5078 47.1144L33.5956 48.7807L33.5956 45.2815L34.9055 44.4484L34.9055 43.6153Z" stroke="#303030"/>
</svg>
