<svg xmlns="http://www.w3.org/2000/svg" width="300" height="412" fill="none"><path fill="#303030" d="M.009 111.875H300v299.992H.009V111.875Z"/><path fill="#DDD" d="m142.461 221.689 7.017-1.403s-10.258 70.113-34.385 106.6C84.279 373.486.009 411.861.009 411.861H300s-80.895-40.143-110.874-86.006c-23.677-36.223-33.683-105.569-33.683-105.569l6.667 1.403v-3.508l-5.614-3.509v-14.737l21.052 7.018v-7.018l-21.052-11.227v-16.842l-2.807-2.807h-2.807l-2.807 2.807v16.842l-21.052 11.227v7.018l21.052-7.018v14.737l-5.614 3.509v3.508Z"/><path fill="#303030" d="M0 6.8h26.134v85.778h43.454v22.411H0V6.8ZM103.391 94.124l1.856-19.938h53.659l1.701 19.938h-57.216ZM131.69 46.52l-15.155 34.93 1.237 5.718-13.453 27.82H74.783L131.69 0l57.062 114.989h-29.691l-12.99-26.738.928-6.646L131.69 46.52ZM274.785 6.8h25.207v113.598h-25.207v-22.33l-49.639-43.974v60.895h-25.051V1.391l74.69 66.304V6.8Z"/></svg>