<svg xmlns="http://www.w3.org/2000/svg" width="300" height="412" fill="none"><path fill="#303030" fill-rule="evenodd" d="M300 411.861V111.875h-.008V6.8h-25.207v60.895L200.095 1.39v110.484h-12.888L131.69 0 76.323 111.875h-6.735V92.578H26.134V6.8H0l.008 105.075v299.986s84.27-38.375 115.084-84.976c24.127-36.486 34.385-106.599 34.385-106.599l-7.017 1.403v-3.508l5.614-3.509v-14.737l-21.052 7.018v-7.018l21.052-11.227v-16.842l2.807-2.807h2.807l2.807 2.807v16.842l21.052 11.227v7.018l-21.052-7.018v14.737l5.614 3.509v3.508l-6.667-1.403s10.006 69.346 33.683 105.569C219.104 371.718 300 411.861 300 411.861ZM274.785 98.068l-49.639-43.974v57.781h49.639V98.068Zm-117.236 13.807h-51.725l8.585-17.751h34.515l8.625 17.751ZM131.69 46.521l-12.003 27.665h24.075L131.69 46.521Z" clip-rule="evenodd"/></svg>